# xmcd
#
# Track frame offsets: 
#        182
#        12837
#        27082
#        38467
#        51850
#        64590
#        78382
#        91317
#        102710
#        114677
#        126615
#        140125
#        152412
#        164775
#        175752
#        189025
#        203167
#        217527
#
# Disc length: 3057 seconds
#
# Revision: 5
# Processed by: cddbd v1.5.2PL0 Copyright (c) Steve Scherf et al.
# Submitted via: ExactAudioCopy v1.0b6
#
DISCID=ee0bef12
DTITLE=The R&B Box - The R&B Box:  30 Years of Rhythm and Blues -Teenage
DTITLE=rs Are Diggin´It  (1951 - 1954)
DYEAR=1994
DGENRE=R&B
TTITLE0=Jackie Brenston with His Delta Cats - Rocket 88 (1951)
TTITLE1=The Five Keys - The Glory of Love (1951)
TTITLE2=Lloyd Price - Lawdy Miss Clawdy (1952)
TTITLE3=Ruth Brown - (Mama) He Treats Your Daughter Mean (1953)
TTITLE4=Willie Mae "Big Mama" Thornton - Hound Dog (1953)
TTITLE5=The Orioles - Crying in the Chapel (1953)
TTITLE6=Faye Adams - Shake a Hand (with The Joe Morris Orchestra) (195
TTITLE6=3)
TTITLE7=Jimmy Liggins - Drunk (1953)
TTITLE8=Joe Turner - Honey Hush (1953)
TTITLE9=Professor Longhair - Tipitina (1972)
TTITLE10=The Harp-Tones - A Sunday Kind of Love (ft Willie Winfield) (
TTITLE10=1953)
TTITLE11=The Clovers - Lovey Dovey (1954)
TTITLE12=The Spaniels - Goodnite, Sweetheart, Goodnite (1954)
TTITLE13=The Chords - Sh-Boom (1954)
TTITLE14=The Penguins - Earth Angel (Will You Be Mine) (1954)
TTITLE15=LaVern Baker - Tweedle Dee (with The Gliders) (1954)
TTITLE16=The Moonglows - Sincerely (1954)
TTITLE17=The Joe Houston Orchestra - All Night Long (1954)
EXTD=
EXTT0=
EXTT1=
EXTT2=
EXTT3=
EXTT4=
EXTT5=
EXTT6=
EXTT7=
EXTT8=
EXTT9=
EXTT10=
EXTT11=
EXTT12=
EXTT13=
EXTT14=
EXTT15=
EXTT16=
EXTT17=
PLAYORDER=
